# xmcd
#
# Track frame offsets:
#	150
#	13965
#	25781
#	41620
#	54651
#	69623
#	79916
#	91713
#	103886
#	111467
#	123823
#	140429
#	152101
#	164018
#	174817
#	193285
#	206734
#	215059
#	228112
#	241134
#
# Disc length: 3362 seconds
#
# Revision: 1
# Processed by: cddbd v1.5.2PL0 Copyright (c) Steve Scherf et al.
# Submitted via: audiograbber 1.83.01
#
DISCID=1b0d2014
DTITLE=Various Artist - 20 Hits: Your Cheatin' Heart
DYEAR=2007
DGENRE=Country
TTITLE0=Moe Bandy - I Cheated Me Right Out of You
TTITLE1=The Kendalls - Heaven's Just a Sin Away
TTITLE2=Merle Haggard - It's Not Love (But It's Not Bad)
TTITLE3=Kenny Rogers and The First Edition - Ruby, Don't Take Your Love To Town
TTITLE4=Porter Wagoner - The Cold Hard Facts of Life
TTITLE5=Patsy Cline - Three Cigarettes In an Ashtray
TTITLE6=George Jones - She Thinks I Still Care
TTITLE7=Moe Bandy - It's a Cheating Situation
TTITLE8=Mickey Gilley - The Window Up Above (live)
TTITLE9=Billie Jo Spears - The Cheatin' Kind
TTITLE10=TG Sheppard - Last Cheaters Waltz
TTITLE11=Barbara Fairchild - Cheatin' Is
TTITLE12=Conway Twitty - (Lying Here With) Linda On My Mind
TTITLE13=The Kendalls - You'd Make an Angel Want To Cheat
TTITLE14=Juice Newton - Angel of the Morning
TTITLE15=Moe Bandy - I Just Started Hatin' Cheatin' Songs Today
TTITLE16=Pam Tillis - Do You Know Where Your Man Is (live)
TTITLE17=Janie Fricke - She's Single Again
TTITLE18=Carl and Pearl Butler - Don't Let Me Cross Over
TTITLE19=Faron Young - Your Cheatin' Heart
EXTD=
EXTT0=
EXTT1=
EXTT2=
EXTT3=
EXTT4=
EXTT5=
EXTT6=
EXTT7=
EXTT8=
EXTT9=
EXTT10=
EXTT11=
EXTT12=
EXTT13=
EXTT14=
EXTT15=
EXTT16=
EXTT17=
EXTT18=
EXTT19=
PLAYORDER=
